<!--?xml version="1.0" encoding="utf-8"?-->
<!-- Svg Vector Icons : http://www.onlinewebfonts.com/icon -->

<svg version="1.1" xmlns="http://www.w3.org/2000/svg" xmlns:xlink="http://www.w3.org/1999/xlink" x="0px" y="0px" viewBox="0 0 256 256" enable-background="new 0 0 256 256" xml:space="preserve">
<metadata> Svg Vector Icons : http://www.onlinewebfonts.com/icon </metadata>
<g><g><path fill="#f8f9fa" data-title="Layer 0" xs="0" d="M191,158.2l-1.7-0.7l1.4-1.1c10.5-8.2,16.5-20.5,16.5-33.6c0-23.6-19.3-42.8-43.1-42.8s-43.1,19.2-43.1,42.8c0,13.2,6,25.4,16.5,33.6l1.4,1.1l-1.7,0.7c-27.8,11-45.7,37.3-45.7,66.9v14.6c0,3.5,2.8,6.3,6.3,6.3h132.4c3.5,0,6.3-2.8,6.3-6.3v-14.6C236.7,195.5,218.8,169.3,191,158.2z M133.8,122.8c0-16.7,13.7-30.2,30.4-30.2c16.8,0,30.4,13.6,30.4,30.2c0,16.7-13.7,30.2-30.4,30.2C147.4,153.1,133.8,139.5,133.8,122.8z M224.1,233.5H104.4v-8.3c0-32.8,26.9-59.5,59.9-59.5c33,0,59.8,26.7,59.8,59.5V233.5z"/><path fill="#f8f9fa" data-title="Layer 1" xs="1" d="M112.1,74.5l-29.8,29.8c-1,1-1.6,2.4-1.6,3.8c0,1.4,0.6,2.8,1.6,3.8c1,1,2.4,1.6,3.8,1.6c1.4,0,2.8-0.6,3.8-1.6l29.8-29.8c2.1-2.1,2.1-5.5,0-7.6c-1-1-2.4-1.6-3.8-1.6C114.5,72.9,113.1,73.5,112.1,74.5z"/><path fill="#f8f9fa" data-title="Layer 2" xs="2" d="M98.6,174.1l-0.4-1.7c-0.7-3-1.3-6.1-1.7-9.3l-0.2-1.7l-1.7,0.2c-2.7,0.4-5.4,0.6-8.1,0.6c-30,0-54.4-24.4-54.4-54.4c0-30,24.4-54.4,54.4-54.4c18.3,0,35.3,9.2,45.4,24.5l0.9,1.4l1.4-0.9c2.6-1.8,5.3-3.4,8-4.9l1.6-0.8l-1-1.5c-2.8-4.4-6.2-8.3-9.9-11.9c4.7,0,4.9-0.1,5.1-0.1c0.7-0.1,1.3-0.5,1.8-1l9.2-9.2c0.5-0.5,0.9-1.2,1-1.8c0.1-0.8-0.1-1.6-0.6-2.1l-10.7-10.7c-0.4-0.4-1-0.6-1.7-0.6h-0.3l-0.1,0c-0.7,0.1-1.3,0.5-1.8,1l-9.2,9.2c-0.5,0.5-0.8,1.2-1,1.9c0,0.1,0,0.4-0.1,6.7c-8-5.5-17.3-9.3-27.1-10.9V30.2h4.1c0.7,0,1.4-0.2,1.9-0.6c0.7-0.5,1.1-1.2,1.1-2V12.5c0-0.7-0.4-1.4-1.1-1.9c-0.5-0.4-1.2-0.6-2-0.6H71.4c-0.7,0-1.4,0.2-2,0.6c-0.7,0.5-1,1.2-1,1.9v15.1c0,0.7,0.4,1.4,1.1,2c0.6,0.4,1.2,0.6,1.9,0.6h4.1v11.4c-32.2,5.3-56.3,33.6-56.3,66.3c0,37.1,30.2,67.3,67.3,67.3c3.4,0,6.9-0.3,10.3-0.8L98.6,174.1z"/></g></g>
</svg>