<!--?xml version="1.0" encoding="utf-8"?-->
<!-- Svg Vector Icons : http://www.onlinewebfonts.com/icon -->

<svg version="1.1" xmlns="http://www.w3.org/2000/svg" xmlns:xlink="http://www.w3.org/1999/xlink" x="0px" y="0px" viewBox="0 0 256 256" enable-background="new 0 0 256 256" xml:space="preserve">
<metadata> Svg Vector Icons : http://www.onlinewebfonts.com/icon </metadata>
<g><g><path fill="#f8f9fa" data-title="Layer 0" xs="0" d="M175.2,237.1c-39.1,0-70.8-31.4-70.8-70.1c0-38.7,31.7-70.1,70.8-70.1c39.1,0,70.8,31.4,70.8,70.1C246,205.7,214.3,237.1,175.2,237.1z M175.2,112.4c-30.4,0-55.1,24.4-55.1,54.6c0,30.2,24.7,54.6,55.1,54.6c30.4,0,55.1-24.4,55.1-54.6C230.3,136.8,205.6,112.4,175.2,112.4z M209.3,174.7h-21.9c-2.2,6-7.9,10.4-14.8,10.4c-8.7,0-15.7-7-15.7-15.6c0-6.8,4.4-12.5,10.5-14.6V128c0-2.9,2.4-5.2,5.3-5.2c2.9,0,5.3,2.3,5.3,5.2v26.9c4.5,1.6,7.9,5,9.5,9.4h21.9c2.9,0,5.3,2.3,5.3,5.2C214.5,172.4,212.2,174.7,209.3,174.7z M172.6,164.4c-2.9,0-5.3,2.3-5.3,5.2c0,2.9,2.4,5.2,5.3,5.2c2.9,0,5.2-2.3,5.2-5.2C177.8,166.7,175.5,164.4,172.6,164.4z M62.4,112.4c-8.7,0-15.7-7-15.7-15.6s7.1-15.6,15.7-15.6c8.7,0,15.7,7,15.7,15.6S71.1,112.4,62.4,112.4z M62.4,91.6c-2.9,0-5.3,2.3-5.3,5.2s2.4,5.2,5.3,5.2c2.9,0,5.2-2.3,5.2-5.2S65.3,91.6,62.4,91.6z M62.4,169.5c-8.7,0-15.7-7-15.7-15.6c0-8.6,7.1-15.6,15.7-15.6c8.7,0,15.7,7,15.7,15.6C78.2,162.6,71.1,169.5,62.4,169.5z M62.4,148.8c-2.9,0-5.3,2.3-5.3,5.2c0,2.9,2.4,5.2,5.3,5.2c2.9,0,5.2-2.3,5.2-5.2C67.7,151.1,65.3,148.8,62.4,148.8z M93.9,154c0-3.5,1.2-6.8,3.3-9.4c-1.3,4.3-2.2,8.7-2.7,13.3C94.1,156.6,93.9,155.3,93.9,154z M109.6,81.3c8.7,0,15.7,7,15.7,15.6c0,3.2-1,6.2-2.7,8.7c-1.8,1.5-3.5,3.1-5.2,4.7c-2.3,1.3-5,2.2-7.9,2.2c-8.7,0-15.7-7-15.7-15.6C93.9,88.2,101,81.3,109.6,81.3z M109.6,102c2.9,0,5.3-2.3,5.3-5.2s-2.4-5.2-5.3-5.2s-5.3,2.3-5.3,5.2S106.8,102,109.6,102z M193.6,54.9c0-5.5-4.4-10-9.9-10h-5.9c0,8.6-7.1,15.6-15.7,15.6s-15.7-7-15.7-15.6h-21c0,8.6-7.1,15.6-15.7,15.6c-8.7,0-15.7-7-15.7-15.6H73c0,8.6-7.1,15.6-15.7,15.6c-8.7,0-15.7-7-15.7-15.6h-5.9c-5.5,0-9.9,4.5-9.9,10v125.4c0,5.5,4.4,10,9.9,10h61.7c1.7,5.5,3.9,10.7,6.7,15.6H31c-11.6,0-21-9.3-21-20.8v-135c0-11.5,9.4-20.8,21-20.8h11.5c2.2-6,7.9-10.4,14.8-10.4c6.8,0,12.6,4.4,14.8,10.4h22.9c2.2-6,7.9-10.4,14.8-10.4c6.8,0,12.6,4.4,14.8,10.4h22.9c2.2-6,7.9-10.4,14.8-10.4c6.8,0,12.6,4.4,14.8,10.4h11.5c11.6,0,21,9.3,21,20.8v43.9c-5-2.3-10.3-4.1-15.7-5.4L193.6,54.9L193.6,54.9z M62.4,34.5c0-2.9-2.3-5.2-5.3-5.2c-2.9,0-5.2,2.3-5.2,5.2v10.4c0,2.9,2.4,5.2,5.2,5.2c2.9,0,5.3-2.3,5.3-5.2V34.5z M114.9,34.5c0-2.9-2.4-5.2-5.3-5.2s-5.3,2.3-5.3,5.2v10.4c0,2.9,2.4,5.2,5.3,5.2s5.3-2.3,5.3-5.2V34.5z M167.3,34.5c0-2.9-2.4-5.2-5.2-5.2c-2.9,0-5.3,2.3-5.3,5.2v10.4c0,2.9,2.4,5.2,5.3,5.2c2.9,0,5.2-2.3,5.2-5.2V34.5z"/></g></g>
</svg>