<!--?xml version="1.0" encoding="utf-8"?-->
<!-- Svg Vector Icons : http://www.onlinewebfonts.com/icon -->

<svg version="1.1" xmlns="http://www.w3.org/2000/svg" xmlns:xlink="http://www.w3.org/1999/xlink" x="0px" y="0px" viewBox="0 0 256 256" enable-background="new 0 0 256 256" xml:space="preserve">
<metadata> Svg Vector Icons : http://www.onlinewebfonts.com/icon </metadata>
<g><g><path fill="#f8f9fa" data-title="Layer 0" xs="0" d="M123.2,172.5c-30,10.8-50.8,23.2-64.2,34.3c9.5,8.4,27.2,10.4,44.9,4c22.5-8.1,36.4-26.8,30.9-41.7c-0.1-0.2-0.2-0.3-0.2-0.5C130.9,169.8,127.1,171.1,123.2,172.5L123.2,172.5z M141.6,222.7c-57.3,20.7-104.3,8.5-106.3,3.1c-3.4-9.3,18.5-40.4,83.9-64.1c65.5-23.7,102-14.9,105.8-4.5C227.4,163.4,198.9,202,141.6,222.7L141.6,222.7z M196.6,106.7C163,36.2,145.5,9.5,90.5,10.5C70.9,11,75.6-3.3,60.8,2.1c-14.9,5.4-2.1,13.3-17.4,25.4C0.5,61.8,4.5,93.4,24.3,168.8c8.4,31.8-20.2,33.3-8.9,64.1c8.2,22.5,69,31.8,133.1,8.7c64.1-23.2,104.6-69.1,96.3-91.6C233.7,119.3,210.8,136.3,196.6,106.7L196.6,106.7z"/></g></g>
</svg>